<svg width="500" height="150" viewBox="0 0 500 150" fill="none" xmlns="http://www.w3.org/2000/svg">
<path d="M247.6 71.68V72.08H245.68C245.733 72.3467 245.76 72.6133 245.76 72.88C245.76 73.1467 245.76 73.4133 245.76 73.68H231.76C231.76 74.3733 231.413 74.9067 230.72 75.28C230.4 75.3867 230.16 75.44 230 75.44H213.68C213.467 75.44 213.253 75.44 213.04 75.44C212.827 75.3867 212.613 75.3333 212.4 75.28H199.36V75.68H206.4C206.347 75.9467 206.32 76.2133 206.32 76.48C206.32 76.7467 206.32 77.0133 206.32 77.28H203.52C203.467 77.3867 203.44 77.52 203.44 77.68C203.44 77.84 203.44 77.9733 203.44 78.08H203.68V78.88H202.48V80.48H206.32V80.88H193.36V81.68H197.44V83.28H205.68V83.68H202.32V84.08H200.16V85.68H206.32C206.373 85.8933 206.4 86.1067 206.4 86.32C206.4 86.48 206.4 86.6667 206.4 86.88H208.64V87.28H198.32V88.08H196V88.48H206.4V88.56H222.4C223.413 88.56 224 89.0667 224.16 90.08H236V91.28H235.44L235.28 92.88H234.4L234.32 93.68H236.4C236.4 93.84 236.373 93.9733 236.32 94.08H235.84C235.787 94.1867 235.76 94.32 235.76 94.48H238.4L238.16 95.68H235.68C235.68 95.7333 235.653 95.7867 235.6 95.84C235.6 95.8933 235.6 95.9733 235.6 96.08H234.96C234.907 96.2933 234.827 96.5067 234.72 96.72C234.667 96.88 234.613 97.0667 234.56 97.28H235.52C235.52 97.3333 235.467 97.4667 235.36 97.68H233.76C233.653 97.9467 233.52 98.2133 233.36 98.48C233.253 98.7467 233.12 99.0133 232.96 99.28H234.56L233.84 100.48H234.56L233.76 101.68H233.28C233.067 101.947 232.827 102.213 232.56 102.48C232.347 102.747 232.107 103.013 231.84 103.28H231.2C231.147 103.333 231.093 103.387 231.04 103.44C230.987 103.493 230.907 103.573 230.8 103.68H227.36L226.96 104.08H243.04C242.72 104.347 242.4 104.613 242.08 104.88C241.76 105.147 241.413 105.413 241.04 105.68H240.16C239.627 106.053 238.987 106.453 238.24 106.88H221.36C220.827 107.2 220.267 107.493 219.68 107.76C219.093 107.973 218.507 108.213 217.92 108.48H231.12C230.96 108.533 230.773 108.587 230.56 108.64C230.4 108.693 230.213 108.773 230 108.88H226.8C226.587 108.933 226.373 108.987 226.16 109.04C225.947 109.093 225.733 109.173 225.52 109.28H219.76C217.84 109.813 215.867 110.213 213.84 110.48H215.12C214.267 110.587 213.387 110.667 212.48 110.72C211.573 110.773 210.667 110.8 209.76 110.8C208.747 110.8 207.76 110.773 206.8 110.72C205.893 110.667 204.987 110.587 204.08 110.48H202.8C200.667 110.213 198.693 109.813 196.88 109.28H202.64C202.427 109.173 202.213 109.093 202 109.04C201.84 108.987 201.653 108.933 201.44 108.88H204.72L203.6 108.48H190.4C189.867 108.213 189.307 107.973 188.72 107.76C188.187 107.493 187.653 107.2 187.12 106.88H204.08C203.76 106.667 203.44 106.48 203.12 106.32C202.8 106.107 202.507 105.893 202.24 105.68H203.12C202.48 105.2 201.867 104.667 201.28 104.08H185.12C185.067 103.973 185.013 103.893 184.96 103.84C184.907 103.787 184.827 103.733 184.72 103.68H188.24C188.187 103.573 188.107 103.493 188 103.44C187.947 103.387 187.893 103.333 187.84 103.28H188.48C188 102.747 187.547 102.213 187.12 101.68H187.6L186.88 100.48H186.16L185.44 99.28H183.84L183.12 97.68H184.8L184.64 97.28H183.6C183.547 97.0667 183.493 96.88 183.44 96.72C183.387 96.5067 183.307 96.2933 183.2 96.08H183.84L183.68 95.68H186.16C186.107 95.4667 186.053 95.28 186 95.12C185.947 94.9067 185.893 94.6933 185.84 94.48H184.56C184.507 94.3733 184.48 94.24 184.48 94.08H183.12C183.067 93.9733 183.04 93.84 183.04 93.68H183.12C183.12 93.4667 183.067 93.2 182.96 92.88H178.4L178.16 91.28H184.32C184.267 91.0667 184.24 90.88 184.24 90.72C184.24 90.5067 184.213 90.2933 184.16 90.08H185.68C185.68 89.92 185.68 89.76 185.68 89.6C185.68 89.44 185.653 89.28 185.6 89.12V88.48H175.2V88.08H177.52V87.28H187.84V86.88H185.6C185.6 86.6667 185.573 86.48 185.52 86.32C185.52 86.1067 185.52 85.8933 185.52 85.68H179.36V84.08H181.52V83.68H184.88V83.28H176.64V81.68H172.56V80.88H185.52V80.48H181.68V78.88H182.88V78.08H182.64V77.28H185.52V75.68H178.56V75.28H193.92V74.88C193.973 74.6667 194 74.48 194 74.32C194 74.1067 194 73.8933 194 73.68H189.76C189.76 73.4133 189.76 73.1467 189.76 72.88C189.813 72.6133 189.867 72.3467 189.92 72.08H192.48C192.533 71.9733 192.56 71.84 192.56 71.68H176C176.053 71.5733 176.08 71.44 176.08 71.28C176.08 71.12 176.107 70.9867 176.16 70.88H190.72L191.12 69.28H187.84L188.08 68.48H182.72L182.88 68.08H184.64C184.693 67.9733 184.747 67.84 184.8 67.68C184.853 67.52 184.907 67.3867 184.96 67.28H184.08L184.4 66.48H184.8C184.907 66.2667 185.013 66.08 185.12 65.92C185.227 65.7067 185.307 65.4933 185.36 65.28H185.44L186.16 64.08H185.92C186.027 63.8667 186.133 63.68 186.24 63.52C186.4 63.3067 186.56 63.0933 186.72 62.88H186.08C186.293 62.6133 186.507 62.3467 186.72 62.08C186.933 61.76 187.147 61.4933 187.36 61.28H186.64C186.693 61.1733 186.747 61.0933 186.8 61.04C186.853 60.9867 186.907 60.9333 186.96 60.88H186.16L186.56 60.48H186.4C186.507 60.3733 186.587 60.2933 186.64 60.24C186.693 60.1867 186.747 60.1333 186.8 60.08H185.36C185.467 59.9733 185.6 59.84 185.76 59.68C185.92 59.52 186.08 59.3867 186.24 59.28H188.16C188.427 59.0667 188.693 58.88 188.96 58.72C189.227 58.5067 189.493 58.2933 189.76 58.08H188.88L189.52 57.68H188.16C188.267 57.5733 188.373 57.4933 188.48 57.44C188.587 57.3867 188.693 57.3333 188.8 57.28H192.96C193.333 57.0667 193.707 56.88 194.08 56.72C194.453 56.5067 194.827 56.2933 195.2 56.08H194.96C195.28 55.92 195.6 55.7867 195.92 55.68C196.24 55.52 196.56 55.3867 196.88 55.28H198.4C198.56 55.1733 198.72 55.0933 198.88 55.04C199.093 54.9867 199.307 54.9333 199.52 54.88H197.12C198.72 54.2933 200.427 53.8933 202.24 53.68H204.4C206.48 53.36 208.667 53.2 210.96 53.2C213.2 53.2 215.36 53.36 217.44 53.68H215.36C217.12 53.8933 218.88 54.2933 220.64 54.88H223.04C223.253 54.9333 223.44 54.9867 223.6 55.04C223.813 55.0933 224.027 55.1733 224.24 55.28H222.72C223.52 55.5467 224.187 55.8133 224.72 56.08H224.96C225.387 56.2933 225.787 56.5067 226.16 56.72C226.533 56.88 226.907 57.0667 227.28 57.28H223.2C223.307 57.3333 223.413 57.3867 223.52 57.44C223.627 57.4933 223.733 57.5733 223.84 57.68H225.2C225.307 57.7333 225.413 57.7867 225.52 57.84C225.627 57.8933 225.707 57.9733 225.76 58.08H226.64L228.24 59.28H226.24L227.2 60.08H228.64L229.12 60.48H229.2L229.6 60.88H230.4L230.8 61.28H231.52C231.733 61.4933 231.947 61.76 232.16 62.08C232.373 62.3467 232.587 62.6133 232.8 62.88H233.36C233.52 63.0933 233.653 63.3067 233.76 63.52C233.92 63.68 234.053 63.8667 234.16 64.08H234.4C234.507 64.2933 234.613 64.5067 234.72 64.72C234.827 64.88 234.933 65.0667 235.04 65.28H234.88C234.987 65.4933 235.093 65.7067 235.2 65.92C235.307 66.08 235.387 66.2667 235.44 66.48H235.04L235.28 67.28H236.16L236.4 68.08H234.64C234.64 68.1333 234.64 68.1867 234.64 68.24C234.693 68.2933 234.72 68.3733 234.72 68.48H240.08C240.08 68.6933 240.133 68.96 240.24 69.28H232.96L233.2 70.88H237.84L237.92 71.68H247.6ZM210.88 69.28H216.56C215.707 68.96 214.747 68.8 213.68 68.8C212.613 68.8 211.68 68.96 210.88 69.28ZM224.72 73.12C224.667 72.9067 224.613 72.72 224.56 72.56C224.507 72.4 224.427 72.24 224.32 72.08H226.24L226 71.68H216.4C216.347 71.52 216.267 71.3867 216.16 71.28C216.053 71.12 215.947 70.9867 215.84 70.88H197.68C197.627 70.9867 197.547 71.12 197.44 71.28C197.387 71.3867 197.307 71.52 197.2 71.68H213.76L213.6 72.08H211.04C210.933 72.2933 210.853 72.56 210.8 72.88C210.747 73.1467 210.693 73.4133 210.64 73.68H224.96L224.72 73.12ZM215.28 90.08H205.04L205.28 91.28H199.12C199.227 91.6 199.333 91.8933 199.44 92.16C199.547 92.3733 199.68 92.6133 199.84 92.88H204.4C204.507 93.04 204.613 93.2 204.72 93.36C204.827 93.4667 204.933 93.5733 205.04 93.68H204.88L205.28 94.08H206.64C206.747 94.1333 206.853 94.2133 206.96 94.32C207.067 94.3733 207.173 94.4267 207.28 94.48H208.56C209.467 94.96 210.56 95.2 211.84 95.2C213.12 95.2 214.187 94.96 215.04 94.48H212.4L213.04 94.08H213.52L214 93.68H211.92C212.027 93.5733 212.133 93.4667 212.24 93.36C212.4 93.2 212.507 93.04 212.56 92.88H213.44C213.76 92.4 214.027 91.8667 214.24 91.28H214.8L214.96 90.88C215.067 90.56 215.173 90.2933 215.28 90.08ZM294.032 78.08H290.112C290.059 78.2933 290.005 78.5067 289.952 78.72C289.899 78.88 289.819 79.0667 289.712 79.28H291.952L291.712 80.08H289.792C289.632 80.56 289.419 81.0933 289.152 81.68H287.952C287.739 82.2133 287.445 82.7467 287.072 83.28H287.232C287.019 83.5467 286.832 83.8133 286.672 84.08C286.512 84.3467 286.325 84.6133 286.112 84.88H294.752L293.712 86.08H286.592C286.379 86.3467 286.112 86.6133 285.792 86.88C285.472 87.1467 285.179 87.4133 284.912 87.68H285.952C285.739 87.8933 285.472 88.1067 285.152 88.32C284.885 88.48 284.619 88.6667 284.352 88.88H286.992L286.672 89.12L287.392 90.48H285.472L286.352 92.08H286.592L286.832 92.48H286.752L287.552 94.08H288.352L288.832 94.88H282.672L283.312 96.08H288.912L289.392 96.88H287.632L288.272 98.08H296.192L297.072 99.68H291.792L292.432 100.88H289.952L291.232 103.28H291.792L292.272 104.08H292.032L292.272 104.48H288.512L289.392 106.08L289.552 106.48H287.072L287.472 107.36C287.632 107.573 287.712 107.813 287.712 108.08H289.392V108.24C289.392 108.827 289.152 109.307 288.672 109.68H290.832C290.565 109.893 290.219 110 289.792 110H273.392C273.072 110 272.779 109.973 272.512 109.92C272.299 109.813 272.059 109.733 271.792 109.68H269.632C269.205 109.467 268.832 109.2 268.512 108.88C268.245 108.56 268.032 108.293 267.872 108.08H266.272L266.112 107.84L265.552 106.48H268.112L267.872 106.08H260.272V106.48H256.192V108.08H262.672C262.565 108.827 262.219 109.36 261.632 109.68H261.072C260.699 109.893 260.299 110 259.872 110H244.192C243.712 110 243.339 109.893 243.072 109.68H243.712C243.125 109.36 242.779 108.827 242.672 108.08H236.272C236.272 108.027 236.272 108 236.272 108C236.219 107.947 236.192 107.893 236.192 107.84V106.48H240.272V106.08H248.272V104.48H239.712V104.08H244.752V103.28H243.072V102.08H245.872V100.88H241.312V99.68H247.472V98.08H243.952V96.88H243.872V96.48H243.392V96.08H241.232V94.88H243.952V94.08H243.232V92.48H243.312V92.08H243.072V90.48H244.992V88.88H242.272V87.68H241.232V86.08H248.272V84.88H239.632V83.28H239.472V81.68H240.672V80.08H242.512V79.28H240.272V78.08H244.192V77.28H249.952V76.48H242.032V76.08H242.432V75.68H243.152V75.28H243.232V74.48H243.072V73.28H243.392V71.68H242.992V70.88H243.392V69.68H243.072V69.28H243.312V68.48H243.232V68.08H242.912V67.68H243.632V66.48H244.272V65.28H240.512V63.68H241.392V62.08H240.912V60.88H243.072V59.68H243.872V58.48H242.432V57.68H242.992V57.28H243.152V56.08H243.312C243.312 55.4933 243.552 54.96 244.032 54.48H248.352C248.672 54.16 249.125 54 249.712 54H273.392C275.685 54 277.819 54.16 279.792 54.48H275.552C277.685 54.8 279.712 55.3333 281.632 56.08H281.472C282.379 56.4 283.259 56.8 284.112 57.28H283.952L284.672 57.68H284.032C284.299 57.7867 284.512 57.92 284.672 58.08C284.885 58.24 285.099 58.3733 285.312 58.48H286.752C287.019 58.6933 287.285 58.9067 287.552 59.12C287.819 59.28 288.059 59.4667 288.272 59.68H287.472C287.739 59.8933 287.952 60.1067 288.112 60.32C288.325 60.48 288.539 60.6667 288.752 60.88H286.592C286.805 61.0933 286.992 61.3067 287.152 61.52C287.312 61.68 287.472 61.8667 287.632 62.08H288.032C288.459 62.6133 288.832 63.1467 289.152 63.68H288.352C288.512 63.8933 288.645 64.16 288.752 64.48C288.912 64.7467 289.072 65.0133 289.232 65.28H292.992L293.472 66.48H292.832C292.885 66.6933 292.939 66.9067 292.992 67.12C293.099 67.28 293.179 67.4667 293.232 67.68H292.432L292.592 68.08H292.912C292.965 68.1867 292.992 68.32 292.992 68.48L293.232 69.28H293.472C293.472 69.44 293.499 69.5733 293.552 69.68H293.632C293.685 69.8933 293.712 70.1067 293.712 70.32C293.765 70.48 293.792 70.6667 293.792 70.88H292.752C292.752 70.9867 292.752 71.12 292.752 71.28C292.752 71.44 292.779 71.5733 292.832 71.68H293.312C293.312 71.9467 293.312 72.2133 293.312 72.48C293.365 72.7467 293.392 73.0133 293.392 73.28V74.08H293.872V74.48H293.392V75.28H292.592C292.592 75.3333 292.565 75.3867 292.512 75.44C292.512 75.4933 292.512 75.5733 292.512 75.68H293.312C293.312 75.7333 293.285 75.7867 293.232 75.84C293.232 75.8933 293.232 75.9733 293.232 76.08H296.992C296.939 76.1867 296.912 76.32 296.912 76.48H297.952L297.872 77.28H294.192C294.085 77.6 294.032 77.8667 294.032 78.08ZM262.032 76.48H269.952V77.28H264.192V77.36H270.032C270.405 77.36 270.699 77.3333 270.912 77.28H274.592C275.179 77.12 275.712 76.8533 276.192 76.48H275.072L275.472 76.08H271.712C271.872 75.92 271.979 75.7867 272.032 75.68H271.232L271.472 75.28H272.272L272.512 74.48H272.912C272.965 74.3733 272.992 74.24 272.992 74.08H272.512L272.592 73.28C272.592 72.7467 272.512 72.2133 272.352 71.68H271.872C271.819 71.5733 271.765 71.44 271.712 71.28C271.712 71.12 271.659 70.9867 271.552 70.88H272.672C272.459 70.4533 272.165 70.0533 271.792 69.68H271.632C271.472 69.52 271.285 69.3867 271.072 69.28H270.832C270.299 69.0133 269.739 68.88 269.152 68.88H263.312V69.28H263.072V69.68H263.392V70.88H262.992V71.68H263.392V73.28H263.072V74.48H263.232V75.28H263.152V75.68H262.432V76.08H262.032V76.48ZM268.352 94.88L268.032 94.08H267.152L266.512 92.56H263.232V94.08H263.952V94.88H268.352ZM261.232 94.88V96.08H262.752L262.272 94.88H261.232ZM268.512 96.48L268.352 96.08H263.392V96.48H263.872V96.88H263.952V98.08H267.472V99.68H261.312V100.88H265.872V102.08H263.072V103.28H264.752V104.08H259.712V104.48H270.992L270.752 104.08H270.992L270.592 103.28H269.952L269.472 102.08L268.912 100.88H271.472L270.912 99.68H276.112L275.392 98.08H267.472L266.992 96.88H268.752L268.512 96.48ZM348.864 54.88C349.024 55.0933 349.104 55.36 349.104 55.68H351.904V55.76C351.904 56.0267 351.851 56.2667 351.744 56.48L351.504 56.88H348.544L347.744 58.48H348.384L347.984 59.28H349.264L349.024 59.68H346.464L345.904 60.88H346.384L346.144 61.28H345.184L344.784 62.08H350.144L349.344 63.68H344.624L344.464 64.08H343.424L342.784 65.28H345.024L344.224 66.88H345.904L345.664 67.28H345.104L344.864 67.68H344.384L343.584 69.28H343.664L343.264 70.08H344.464L344.224 70.48H343.424L343.184 70.88H344.944L344.544 71.68H347.504L347.104 72.48H339.744L339.344 73.28H344.384L343.744 74.48H342.704L342.144 75.68H340.144L339.984 76.08H340.464L340.064 76.88H339.584L339.424 77.28H341.104L340.704 78.08H341.504L340.944 79.28H339.424L339.264 79.68H338.864L338.064 81.28H337.824L337.584 81.68H339.584L339.184 82.48H340.464L339.904 83.68H335.104L334.704 84.48H337.424L336.784 85.68H335.664L335.424 86.08L334.784 87.28H336.384L336.144 87.68H339.104L338.944 88.08L338.544 88.88H332.064L331.664 89.68H339.824L339.024 91.28H334.624L334.224 92.08V92.88H331.984V93.68H332.384V95.28H334.464V96.88H325.344V98.48H334.704V99.68H331.504V100.88H332.384V101.28H333.504V102.88H334.144V103.28H332.064V104.08H333.584V105.68H327.824V107.28H326.544V108.08H332.144C332.144 108.773 331.824 109.307 331.184 109.68H330.224C329.958 109.893 329.584 110 329.104 110H313.424C312.944 110 312.571 109.893 312.304 109.68H313.184C312.651 109.307 312.331 108.773 312.224 108.08H306.544V107.28H307.824V105.68H313.584V104.08H312.064V103.28H314.144V102.88H313.504V101.28H312.384V100.88H311.504V99.68H314.704V98.48H305.344V96.88H314.464V95.28H312.384V93.68H311.984V92.88H314.224V92.08L313.824 91.28H318.224L317.424 89.68H309.264L308.864 88.88H315.264L314.864 88.08L314.704 87.68H311.744L311.504 87.28H309.904L309.344 86.08H309.424L309.184 85.68H310.304L309.744 84.48H307.024L306.624 83.68H311.424L310.784 82.48H309.504L309.104 81.68H307.104L306.864 81.28H307.184L306.384 79.68H306.704L306.544 79.28H307.984L307.344 78.08H306.544L306.144 77.28H304.464L304.224 76.88H304.704L304.304 76.08H303.824L303.584 75.68H305.584L304.944 74.48H305.984L305.344 73.28H300.304L299.904 72.48H307.264L306.864 71.68H299.504L299.104 70.88H300.704L300.544 70.48H304.224L304.064 70.08H304.464L304.064 69.28H301.264L300.464 67.68H300.864L300.624 67.28H299.984L299.744 66.88H299.664L298.864 65.28H297.024L296.384 64.08H297.344L297.184 63.68H290.304L289.504 62.08H291.344L290.944 61.28H295.824L295.664 60.88H297.664L297.024 59.68H293.744L293.584 59.28H297.984L297.584 58.48H292.864L291.984 56.88H294.624L294.384 56.48C294.278 56.2667 294.224 56.0267 294.224 55.76V55.68H296.384C296.384 55.52 296.411 55.3867 296.464 55.28C296.518 55.12 296.571 54.9867 296.624 54.88H298.064C298.384 54.2933 298.891 54 299.584 54H314.624C315.211 54 315.691 54.08 316.064 54.24C316.491 54.4 316.838 54.6133 317.104 54.88H315.664C315.824 54.9867 315.958 55.12 316.064 55.28C316.224 55.44 316.331 55.5733 316.384 55.68H314.224C314.331 55.8933 314.384 56 314.384 56L314.784 56.88H312.224L313.024 58.48H317.824L318.224 59.28H313.744L313.984 59.68H317.264L317.824 60.88H315.824L316.064 61.28H311.184L311.584 62.08H309.664L310.464 63.68H317.344L317.584 64.08H316.544L317.184 65.28H319.024L319.824 66.88H319.904L320.144 67.28H320.784L320.944 67.68H320.544L321.344 69.28H323.424L324.224 67.68H324.704L324.944 67.28H325.584L325.744 66.88H324.064L324.864 65.28H322.624L323.184 64.08H324.304L324.464 63.68H329.184L329.984 62.08H324.544L324.944 61.28H325.984L326.144 60.88H325.664L326.224 59.68H328.784L329.024 59.28H327.744L328.144 58.48H327.504L328.304 56.88H331.264L331.744 56C331.744 56 331.798 55.8933 331.904 55.68H329.104C329.211 55.5733 329.318 55.44 329.424 55.28C329.531 55.12 329.664 54.9867 329.824 54.88H333.904C334.171 54.6133 334.518 54.4 334.944 54.24C335.371 54.08 335.851 54 336.384 54H351.424C352.118 54 352.624 54.2933 352.944 54.88H348.864ZM324.464 71.68L324.864 70.88H323.104L323.264 70.48H320.624L320.864 70.88H319.184L319.584 71.68H324.464ZM405.661 74.08H404.781V75.28H406.621V75.68H405.901L405.661 77.28H406.541C406.488 77.3867 406.461 77.52 406.461 77.68H405.341C405.288 77.9467 405.235 78.2133 405.181 78.48C405.128 78.7467 405.048 79.0133 404.941 79.28C404.941 79.4933 404.888 79.76 404.781 80.08H403.981L403.501 81.28H403.421C403.368 81.5467 403.261 81.8133 403.101 82.08C402.941 82.3467 402.808 82.6133 402.701 82.88H402.861L402.621 83.28H403.341C403.181 83.5467 403.021 83.8133 402.861 84.08C402.701 84.3467 402.515 84.6133 402.301 84.88H402.861C402.648 85.1467 402.408 85.4133 402.141 85.68C401.928 85.9467 401.688 86.2133 401.421 86.48H401.261C400.941 86.7467 400.621 87.0133 400.301 87.28C400.035 87.5467 399.715 87.8133 399.341 88.08H398.861C398.435 88.3467 397.981 88.6133 397.501 88.88C397.075 89.1467 396.621 89.4133 396.141 89.68H396.381C396.275 89.7333 396.141 89.7867 395.981 89.84C395.821 89.8933 395.688 89.9733 395.581 90.08H395.501C394.488 90.56 393.368 90.96 392.141 91.28C391.555 91.44 390.941 91.6 390.301 91.76C389.661 91.8667 389.021 91.9733 388.381 92.08H388.301C386.168 92.4 383.901 92.56 381.501 92.56H375.901V93.28H376.461V94.88H377.421V95.28H375.501V96.08H376.221V97.28H374.221V97.68H376.701V99.28H375.981V101.28H376.301V102.48H375.341V104.08H374.941V104.88H377.581V106.08H375.341V107.68H376.861V107.84C376.861 108.107 376.835 108.32 376.781 108.48H376.301C376.301 108.533 376.248 108.667 376.141 108.88H376.381C376.328 108.987 376.221 109.12 376.061 109.28H376.141C375.928 109.493 375.768 109.627 375.661 109.68H375.741C375.475 109.893 375.101 110 374.621 110H358.141C357.661 110 357.288 109.893 357.021 109.68H356.861C356.755 109.627 356.595 109.493 356.381 109.28C356.328 109.173 356.275 109.093 356.221 109.04C356.168 108.987 356.141 108.933 356.141 108.88H355.901C355.795 108.667 355.741 108.533 355.741 108.48H356.141C356.088 108.32 356.061 108.107 356.061 107.84V107.68H354.541V106.08H356.781V104.88H354.141V104.08H354.541V102.48H355.501V101.28H355.181V99.28H355.901V97.68H353.421V97.28H355.421V96.08H354.701V95.28H356.621V94.88H355.661V93.28H355.101V92.08H355.181V89.68H355.021V88.08H355.501V86.48H355.741V84.88H355.181V83.28H354.461V82.88H354.301V81.28H354.381V80.08H355.181V77.68H354.941V77.28H354.701V75.68H355.581V75.28H355.261V74.08H355.581V73.28H355.501V72.48H353.261V70.88H344.381V69.68H348.461V68.08H355.741V67.28H352.701V65.68H350.861V64.48H352.061V64.08H350.381V62.48H356.541V62.08H355.741V60.88H353.901V59.68H351.341V58.08H357.101V56.88H354.301V56.48H353.741V56.08H355.181C355.181 55.8667 355.235 55.6 355.341 55.28H354.461C354.515 55.12 354.595 54.9867 354.701 54.88C354.808 54.72 354.915 54.5867 355.021 54.48H359.901C360.328 54.16 360.781 54 361.261 54H385.501C387.848 54 390.008 54.16 391.981 54.48H387.181C387.821 54.5867 388.435 54.72 389.021 54.88C389.661 54.9867 390.248 55.12 390.781 55.28H391.741C392.168 55.3867 392.568 55.52 392.941 55.68C393.368 55.7867 393.768 55.92 394.141 56.08H392.701C392.861 56.1333 393.021 56.1867 393.181 56.24C393.341 56.2933 393.501 56.3733 393.661 56.48H394.141L395.021 56.88H397.901L399.981 58.08H394.141C394.568 58.2933 394.941 58.56 395.261 58.88C395.581 59.1467 395.901 59.4133 396.221 59.68H398.781L399.981 60.88H401.821C401.981 61.0933 402.141 61.3067 402.301 61.52C402.515 61.68 402.675 61.8667 402.781 62.08H403.581C403.741 62.24 403.848 62.3733 403.901 62.48H397.741C397.901 62.6933 398.061 62.96 398.221 63.28C398.381 63.5467 398.541 63.8133 398.701 64.08H400.381L400.541 64.48H399.421L399.901 65.68H401.821L402.301 67.28H405.341L405.581 68.08H398.301C398.408 68.2933 398.461 68.56 398.461 68.88C398.515 69.1467 398.568 69.4133 398.621 69.68H408.861C408.915 69.8933 408.941 70.1067 408.941 70.32C408.941 70.48 408.968 70.6667 409.021 70.88H408.621C408.675 71.1467 408.701 71.4133 408.701 71.68C408.755 71.9467 408.781 72.2133 408.781 72.48H405.661V74.08ZM385.581 75.28H383.741L383.981 74.08H384.861V73.28C384.861 73.1733 384.861 73.04 384.861 72.88C384.861 72.72 384.835 72.5867 384.781 72.48H387.901C387.848 72.2133 387.795 71.9467 387.741 71.68C387.688 71.36 387.608 71.0933 387.501 70.88H387.821C387.715 70.4533 387.448 70.0533 387.021 69.68H376.781C376.141 69.1467 375.368 68.88 374.461 68.88H368.861V69.68H364.781V70.88H373.661V72.48H375.901V73.28H375.981V74.08H375.661V75.28H375.981V75.68H375.101V77.28H375.341V77.68H375.581V77.76H381.181C381.501 77.76 381.741 77.7333 381.901 77.68H383.021C383.235 77.6267 383.421 77.5733 383.581 77.52C383.741 77.4133 383.901 77.3333 384.061 77.28H383.261C383.901 76.9067 384.381 76.3733 384.701 75.68H385.421C385.528 75.4667 385.581 75.3333 385.581 75.28ZM464.388 61.28H449.508V62.88H455.188V64.08H461.348V65.28H461.188V66.48H463.508V68.08H454.788V68.48H453.108V69.04C453.108 69.4133 453.028 69.76 452.868 70.08H458.548C458.174 70.8267 457.561 71.2 456.708 71.2H443.428V71.28H444.228V72.88H444.388V74.48H443.988V76.08H442.948V77.28H446.948V78.08H443.588V79.28H441.828V80.88H444.868V81.68H444.308V83.28H443.748V84.88H442.788V86.48H441.908V87.68H444.868V88.88H443.668V90.48H444.148V90.88H444.708V91.68H448.708V92.88H445.988V94.48H447.188V96.08H443.828V97.68H445.188V98.48H445.748V99.68H447.028V101.28H446.548V102.48H444.468V103.68H444.228V104.48H444.148V105.68H445.028V106.88H444.308V107.84C444.308 108.107 444.281 108.32 444.228 108.48H443.428C443.268 109.013 442.974 109.413 442.548 109.68H442.708C442.441 109.893 442.068 110 441.588 110H425.588C425.161 110 424.761 109.893 424.388 109.68H424.228C423.854 109.413 423.561 109.013 423.348 108.48H424.068C424.014 108.32 423.988 108.107 423.988 107.84V106.88H424.708V105.68H423.828V104.48H423.908V103.68H424.148V102.48H426.228V101.28H426.708V99.68H425.428V98.48H424.868V97.68H423.508V96.08H426.868V94.48H425.668V92.88H428.388V91.68H424.388V90.88H423.828V90.48H423.348V88.88H424.548V87.68H421.588V86.48H422.468V84.88H423.428V83.28H423.988V81.68H424.548V80.88H421.508V79.28H423.268V78.08H426.628V77.28H422.628V76.08H423.668V74.48H424.068V72.88H423.908V71.28H423.108V71.2H409.827C409.028 71.2 408.388 70.8267 407.908 70.08H402.227C402.174 69.92 402.121 69.76 402.067 69.6C401.961 69.44 401.908 69.2533 401.908 69.04V68.48H403.587V68.08H412.308V66.48H409.988V65.28H410.148V64.08H403.987V62.88H398.307V61.28H413.188V60.08H404.867V58.48H406.467V56.88H408.548V56.48H409.748V56.16C409.748 55.6267 409.908 55.2 410.228 54.88H408.468C408.894 54.2933 409.481 54 410.228 54H457.108C457.854 54 458.441 54.2933 458.868 54.88H460.548C460.814 55.2533 460.948 55.68 460.948 56.16V56.48H459.748V56.88H457.668V58.48H456.068V60.08H464.388V61.28Z" fill="white"/>
<g clip-path="url(#clip0_0_4)">
<path d="M133.77 89.2289L127.731 108.862L115.877 105.745L133.77 89.2289Z" fill="#E4761B" stroke="#E4761B" stroke-width="5.94955"/>
<path d="M115.877 105.745L127.311 90.6806L133.77 89.2289L115.877 105.745Z" fill="#E4761B" stroke="#E4761B" stroke-width="5.94955"/>
<path d="M124.885 74.4265L133.77 89.2289L127.311 90.6806L124.885 74.4265ZM124.885 74.4265L130.602 70.6188L133.77 89.2289L124.885 74.4265Z" fill="#F6851B" stroke="#F6851B" stroke-width="5.94955"/>
<path d="M117.609 63.2413L134.042 56.7682L133.226 60.3141L117.609 63.2413ZM132.706 64.574L117.609 63.2413L133.226 60.3141L132.706 64.574Z" fill="#763D16" stroke="#763D16" stroke-width="5.94955"/>
<path d="M132.706 64.574L130.602 70.6188L117.609 63.2413L132.706 64.574ZM135.997 58.2675L133.226 60.3141L134.042 56.7682L135.997 58.2675ZM132.706 64.574L133.226 60.3141L135.428 62.0752L132.706 64.574Z" fill="#763D16" stroke="#763D16" stroke-width="5.94955"/>
<path d="M103.131 100.961L107.24 102.223L115.877 105.745L103.131 100.961Z" fill="#E2761B" stroke="#E2761B" stroke-width="5.94955"/>
<path d="M130.602 70.6188L132.706 64.574L134.513 65.9067L130.602 70.6188ZM130.602 70.6188L113.551 65.2166L117.609 63.2413L130.602 70.6188Z" fill="#763D16" stroke="#763D16" stroke-width="5.94955"/>
<path d="M121.668 44.7025L117.609 63.2413L113.551 65.2166L121.668 44.7025Z" fill="#763D16" stroke="#763D16" stroke-width="5.94955"/>
<path d="M134.042 56.7682L117.609 63.2413L121.668 44.7025L134.042 56.7682Z" fill="#763D16" stroke="#763D16" stroke-width="5.94955"/>
<path d="M121.668 44.7025L138.819 42.7987L134.042 56.7682L121.668 44.7025Z" fill="#763D16" stroke="#763D16" stroke-width="5.94955"/>
<path d="M130.602 70.6188L124.885 74.4265L113.551 65.2166L130.602 70.6188Z" fill="#F6851B" stroke="#F6851B" stroke-width="5.94955"/>
<path d="M138.076 29.4479L138.819 42.7987L121.668 44.7025L138.076 29.4479Z" fill="#763D16" stroke="#763D16" stroke-width="5.94955"/>
<path d="M138.076 29.4479L103.8 53.4127L103.354 37.1585L138.076 29.4479Z" fill="#E2761B" stroke="#E2761B" stroke-width="5.94955"/>
<path d="M77.8632 35.207L103.354 37.1585L103.8 53.4127L77.8632 35.207Z" fill="#F6851B" stroke="#F6851B" stroke-width="5.94955"/>
<path d="M113.551 65.2166L103.8 53.4127L121.668 44.7025L113.551 65.2166Z" fill="#763D16" stroke="#763D16" stroke-width="5.94955"/>
<path d="M113.551 65.2166L124.885 74.4265L108.972 76.1161L113.551 65.2166Z" fill="#E4761B" stroke="#E4761B" stroke-width="5.94955"/>
<path d="M108.972 76.1161L103.8 53.4127L113.551 65.2166L108.972 76.1161Z" fill="#E4761B" stroke="#E4761B" stroke-width="5.94955"/>
<path d="M121.668 44.7025L103.8 53.4127L138.076 29.4479L121.668 44.7025Z" fill="#763D16" stroke="#763D16" stroke-width="5.94955"/>
<path d="M78.0859 105.364L86.1787 113.479L75.1656 103.841L78.0859 105.364Z" fill="#C0AD9E" stroke="#C0AD9E" stroke-width="5.94955"/>
<path d="M115.877 105.745L119.713 91.7278L127.311 90.6806L115.877 105.745Z" fill="#CD6116" stroke="#CD6116" stroke-width="5.94955"/>
<path d="M45.2693 66.3113L59.277 52.1514L47.076 64.6216L45.2693 66.3113Z" fill="#E2761B" stroke="#E2761B" stroke-width="5.94955"/>
<path d="M127.311 90.6806L119.713 91.7277L124.885 74.4265L127.311 90.6806ZM103.8 53.4127L90.1632 52.9843L77.8632 35.207L103.8 53.4127Z" fill="#F6851B" stroke="#F6851B" stroke-width="5.94955"/>
<path d="M124.885 74.4265L119.713 91.7277L119.292 83.2794L124.885 74.4265Z" fill="#E4751F" stroke="#E4751F" stroke-width="5.94955"/>
<path d="M108.972 76.1161L124.885 74.4265L119.292 83.2794L108.972 76.1161Z" fill="#CD6116" stroke="#CD6116" stroke-width="5.94955"/>
<path d="M90.1632 52.9843L103.8 53.4127L108.972 76.1161L90.1632 52.9843Z" fill="#F6851B" stroke="#F6851B" stroke-width="5.94955"/>
<path d="M90.1632 52.9843L53.3621 20.238L77.8632 35.207L90.1632 52.9843ZM77.8384 110.338L45.8633 119.857L39.4782 96.416L77.8384 110.338Z" fill="#E4761B" stroke="#E4761B" stroke-width="5.94955"/>
<path d="M50.0211 72.1656L62.0983 63.0509L72.2205 65.3118L50.0211 72.1656Z" fill="#763D16" stroke="#763D16" stroke-width="5.94955"/>
<path d="M72.2205 65.3118L62.0983 63.0509L67.5183 41.5374L72.2205 65.3118Z" fill="#763D16" stroke="#763D16" stroke-width="5.94955"/>
<path d="M47.076 64.6216L62.0984 63.0509L50.0211 72.1656L47.076 64.6216Z" fill="#763D16" stroke="#763D16" stroke-width="5.94955"/>
<path d="M119.292 83.2794L113.056 80.257L108.972 76.1161L119.292 83.2794Z" fill="#CD6116" stroke="#CD6116" stroke-width="5.94955"/>
<path d="M47.076 64.6216L46.0118 59.2194L62.0983 63.0509L47.076 64.6216Z" fill="#763D16" stroke="#763D16" stroke-width="5.94955"/>
<path d="M111.769 87.0633L113.056 80.257L119.292 83.2794L111.769 87.0633Z" fill="#233447" stroke="#233447" stroke-width="5.94955"/>
<path d="M119.713 91.7277L111.769 87.0633L119.292 83.2794L119.713 91.7277Z" fill="#F6851B" stroke="#F6851B" stroke-width="5.94955"/>
<path d="M62.0984 63.0509L46.0118 59.2194L44.7001 54.674L62.0984 63.0509ZM67.5183 41.5374L62.0984 63.0509L44.7001 54.674L67.5183 41.5374ZM67.5183 41.5374L90.1632 52.9843L72.2205 65.3118L67.5183 41.5374Z" fill="#763D16" stroke="#763D16" stroke-width="5.94955"/>
<path d="M72.2205 65.3118L90.1632 52.9843L98.157 76.4731L72.2205 65.3118ZM98.157 76.4731L73.359 75.9733L72.2205 65.3118L98.157 76.4731Z" fill="#E4761B" stroke="#E4761B" stroke-width="5.94955"/>
<path d="M50.0211 72.1656L72.2205 65.3118L73.3589 75.9733L50.0211 72.1656ZM108.972 76.1161L98.157 76.4731L90.1632 52.9843L108.972 76.1161Z" fill="#F6851B" stroke="#F6851B" stroke-width="5.94955"/>
<path d="M113.056 80.257L111.769 87.0633L108.972 76.1161L113.056 80.257Z" fill="#CD6116" stroke="#CD6116" stroke-width="5.94955"/>
<path d="M53.3621 20.238L90.1632 52.9843L67.5183 41.5374L53.3621 20.238Z" fill="#763D16" stroke="#763D16" stroke-width="5.94955"/>
<path d="M39.4782 96.416L70.5129 95.1785L77.8384 110.338L39.4782 96.416Z" fill="#E4761B" stroke="#E4761B" stroke-width="5.94955"/>
<path d="M77.8384 110.338L70.5128 95.1785L85.7579 94.4645L77.8384 110.338Z" fill="#CD6116" stroke="#CD6116" stroke-width="5.94955"/>
<path d="M111.769 87.0633L119.713 91.7277L124.093 101.652L111.769 87.0633ZM73.359 75.9733L39.4782 96.416L50.0211 72.1656L73.359 75.9733ZM70.5129 95.1785L39.4782 96.416L73.359 75.9733L70.5129 95.1785ZM108.972 76.1161L111.001 83.208L101.201 83.7554L108.972 76.1161ZM101.201 83.7554L98.157 76.4731L108.972 76.1161L101.201 83.7554Z" fill="#F6851B" stroke="#F6851B" stroke-width="5.94955"/>
<path d="M86.1786 113.479L77.8384 110.338L106.844 115.026L86.1786 113.479Z" fill="#C0AD9E" stroke="#C0AD9E" stroke-width="5.94955"/>
<path d="M50.0211 72.1656L45.2693 66.3113L47.076 64.6216L50.0211 72.1656Z" fill="#763D16" stroke="#763D16" stroke-width="5.94955"/>
<path d="M110.135 111.552L106.844 115.026L77.8384 110.338L110.135 111.552Z" fill="#D7C1B3" stroke="#D7C1B3" stroke-width="5.94955"/>
<path d="M111.694 103.032L77.8384 110.338L85.7579 94.4645L111.694 103.032Z" fill="#E4761B" stroke="#E4761B" stroke-width="5.94955"/>
<path d="M77.8384 110.338L111.694 103.032L110.135 111.552L77.8384 110.338Z" fill="#D7C1B3" stroke="#D7C1B3" stroke-width="5.94955"/>
<path d="M44.7001 54.674L43.5864 36.3732L67.5183 41.5374L44.7001 54.674ZM47.076 64.6216L43.7844 61.4088L46.0118 59.2194L47.076 64.6216Z" fill="#763D16" stroke="#763D16" stroke-width="5.94955"/>
<path d="M92.6133 81.1852L98.157 76.4731L97.365 87.9914L92.6133 81.1852Z" fill="#CD6116" stroke="#CD6116" stroke-width="5.94955"/>
<path d="M98.157 76.4731L92.6133 81.1852L84.5453 85.207L98.157 76.4731Z" fill="#CD6116" stroke="#CD6116" stroke-width="5.94955"/>
<path d="M124.093 101.652L122.584 100.581L111.769 87.0633L124.093 101.652Z" fill="#F6851B" stroke="#F6851B" stroke-width="5.94955"/>
<path d="M84.5453 85.207L73.3589 75.9733L98.157 76.4731L84.5453 85.207Z" fill="#CD6116" stroke="#CD6116" stroke-width="5.94955"/>
<path d="M97.365 87.9914L98.1569 76.4731L101.201 83.7554L97.365 87.9914Z" fill="#E4751F" stroke="#E4751F" stroke-width="5.94955"/>
<path d="M42.6955 56.4826L44.7001 54.674L46.0118 59.2194L42.6955 56.4826Z" fill="#763D16" stroke="#763D16" stroke-width="5.94955"/>
<path d="M97.365 87.9914L84.5453 85.207L92.6133 81.1852L97.365 87.9914Z" fill="#233447" stroke="#233447" stroke-width="5.94955"/>
<path d="M67.5183 41.5374L43.5864 36.3732L53.3621 20.238L67.5183 41.5374Z" fill="#763D16" stroke="#763D16" stroke-width="5.94955"/>
<path d="M106.844 115.026L108.205 118.596L86.1786 113.479L106.844 115.026Z" fill="#C0AD9E" stroke="#C0AD9E" stroke-width="5.94955"/>
<path d="M85.758 94.4645L84.5453 85.207L97.365 87.9914L85.758 94.4645Z" fill="#F6851B" stroke="#F6851B" stroke-width="5.94955"/>
<path d="M73.3589 75.9733L84.5453 85.207L85.758 94.4645L73.3589 75.9733Z" fill="#E4751F" stroke="#E4751F" stroke-width="5.94955"/>
<path d="M101.201 83.7554L111.001 83.208L122.584 100.581L101.201 83.7554ZM73.3589 75.9733L85.7579 94.4645L70.5128 95.1785L73.3589 75.9733Z" fill="#F6851B" stroke="#F6851B" stroke-width="5.94955"/>
<path d="M101.201 83.7554L113.377 101.58L97.365 87.9914L101.201 83.7554Z" fill="#E4751F" stroke="#E4751F" stroke-width="5.94955"/>
<path d="M97.365 87.9914L113.377 101.58L111.694 103.032L97.365 87.9914Z" fill="#F6851B" stroke="#F6851B" stroke-width="5.94955"/>
<path d="M111.694 103.032L85.7579 94.4645L97.365 87.9914L111.694 103.032ZM122.584 100.581L113.377 101.58L101.201 83.7554L122.584 100.581Z" fill="#F6851B" stroke="#F6851B" stroke-width="5.94955"/>
<path d="M125.009 108.958L121.049 116.597L108.205 118.596L125.009 108.958ZM108.205 118.596L106.844 115.026L110.135 111.552L108.205 118.596Z" fill="#C0AD9E" stroke="#C0AD9E" stroke-width="5.94955"/>
<path d="M110.135 111.552L112.561 110.624L108.205 118.596L110.135 111.552ZM108.205 118.596L112.561 110.624L125.009 108.958L108.205 118.596Z" fill="#C0AD9E" stroke="#C0AD9E" stroke-width="5.94955"/>
<path d="M122.584 100.581L125.628 102.366L116.372 103.436L122.584 100.581Z" fill="#161616" stroke="#161616" stroke-width="5.94955"/>
<path d="M116.372 103.436L113.377 101.58L122.584 100.581L116.372 103.436ZM115.308 104.841L126.568 103.532L125.009 108.958L115.308 104.841Z" fill="#161616" stroke="#161616" stroke-width="5.94955"/>
<path d="M125.009 108.958L112.561 110.624L115.308 104.841L125.009 108.958ZM112.561 110.624L110.135 111.552L111.694 103.032L112.561 110.624ZM111.694 103.032L113.377 101.58L116.372 103.436L111.694 103.032ZM125.628 102.366L126.568 103.532L115.308 104.841L125.628 102.366Z" fill="#161616" stroke="#161616" stroke-width="5.94955"/>
<path d="M115.308 104.841L116.372 103.436L125.628 102.366L115.308 104.841ZM111.694 103.032L115.308 104.841L112.561 110.624L111.694 103.032Z" fill="#161616" stroke="#161616" stroke-width="5.94955"/>
<path d="M116.372 103.436L115.308 104.841L111.694 103.032L116.372 103.436Z" fill="#161616" stroke="#161616" stroke-width="5.94955"/>
</g>
<defs>
<clipPath id="clip0_0_4">
<rect width="100" height="100" fill="white" transform="translate(39 20)"/>
</clipPath>
</defs>
</svg>
